<?xml version="1.0" standalone="no"?>
<!DOCTYPE svg PUBLIC "-//W3C//DTD SVG 20010904//EN"
 "http://www.w3.org/TR/2001/REC-SVG-20010904/DTD/svg10.dtd">
<svg version="1.0" xmlns="http://www.w3.org/2000/svg"
 width="1024.000000pt" height="237.000000pt" viewBox="0 0 1024.000000 237.000000"
 preserveAspectRatio="xMidYMid meet">
<metadata>
Created by potrace 1.15, written by Peter Selinger 2001-2017
</metadata>
<g transform="translate(0.000000,237.000000) scale(0.100000,-0.100000)"
fill="#5b5b5b" stroke="none">
<path d="M6983 2245 c-67 -29 -166 -155 -210 -268 -9 -23 -24 -52 -34 -65 -15
-19 -43 -103 -119 -352 -20 -67 -27 -110 -35 -215 -2 -33 -9 -87 -16 -120 -13
-70 -5 -188 16 -239 21 -50 19 -57 -22 -98 -119 -116 -155 -133 -265 -124 -44
3 -95 13 -115 21 l-35 15 25 33 c24 32 161 308 187 377 13 37 73 172 121 278
16 34 29 64 29 67 0 3 9 24 19 48 11 23 30 71 41 107 12 36 25 67 29 70 26 19
55 100 35 100 -12 0 -43 -46 -44 -65 0 -11 -18 -40 -40 -64 -42 -47 -80 -120
-101 -192 -7 -24 -19 -53 -26 -64 -7 -11 -13 -25 -13 -32 0 -8 -10 -30 -23
-51 -12 -20 -38 -73 -56 -117 -38 -89 -122 -270 -152 -326 -10 -20 -25 -49
-33 -64 -13 -24 -54 -62 -60 -54 -23 37 -66 178 -66 218 0 11 -7 27 -16 36
-15 15 -18 15 -34 -2 -50 -54 -99 -323 -71 -395 23 -60 91 -61 161 -1 42 36
42 37 89 24 95 -27 167 -39 204 -35 81 9 193 69 250 133 32 36 40 37 101 11
35 -14 53 -17 71 -10 14 5 25 8 25 5 0 -2 14 1 30 6 17 6 30 15 30 20 0 5 6 9
14 9 7 0 27 13 43 29 17 16 40 32 51 35 11 4 23 14 26 22 11 28 26 3 26 -42 0
-47 22 -113 43 -126 17 -11 71 -10 99 1 28 11 129 107 121 115 -4 3 -1 6 5 6
6 0 14 10 18 23 3 12 22 44 41 70 35 50 57 93 62 125 0 4 16 13 34 21 47 20
137 82 137 95 0 6 11 23 25 38 14 15 25 31 25 36 0 5 7 15 15 22 8 7 15 16 15
21 0 16 -34 3 -65 -24 -77 -69 -100 -86 -131 -103 -39 -21 -47 -16 -46 28 2
52 -16 94 -54 128 -50 44 -81 40 -143 -16 -28 -26 -51 -51 -51 -57 0 -5 -17
-35 -37 -66 -21 -31 -49 -76 -62 -101 -13 -25 -27 -47 -30 -50 -16 -13 -51
-71 -51 -83 0 -8 -8 -18 -17 -21 -32 -11 -63 -33 -57 -39 3 -3 -3 -3 -15 0
-12 3 -21 1 -21 -5 0 -8 -34 -22 -55 -22 -2 0 -16 -12 -29 -25 -30 -30 -41
-31 -85 -4 l-34 20 31 32 c36 38 122 163 122 177 0 6 5 10 10 10 6 0 10 4 10
10 0 8 21 44 98 165 17 28 31 60 57 132 12 34 25 60 29 56 3 -3 6 1 6 10 0 9
9 33 20 54 11 21 21 47 23 58 2 11 7 28 11 37 4 9 9 22 10 30 1 7 7 23 14 35
7 12 11 26 10 30 -1 8 1 21 28 134 10 42 14 94 11 145 -5 96 -9 114 -41 169
-33 56 -78 69 -143 40z m69 -70 c7 -9 18 -21 24 -28 9 -11 18 -95 17 -167 0
-59 -17 -130 -59 -253 -25 -73 -54 -159 -65 -192 -25 -73 -27 -78 -89 -190
-27 -49 -58 -106 -67 -125 -19 -37 -22 -41 -54 -80 -12 -14 -31 -41 -44 -60
-33 -51 -63 -76 -76 -63 -14 14 -13 152 1 287 10 88 52 290 80 382 6 17 10 36
10 43 0 16 49 130 103 240 29 58 63 106 107 153 66 69 89 80 112 53z m174
-1040 c20 -14 45 -25 55 -25 25 0 25 -34 -1 -70 -11 -15 -17 -30 -14 -33 3 -3
-3 -18 -13 -33 -10 -16 -12 -25 -5 -21 6 5 12 4 12 -1 0 -5 -11 -15 -25 -22
-13 -7 -23 -16 -21 -19 3 -3 -17 -20 -43 -37 -35 -24 -52 -29 -69 -23 -20 8
-22 13 -18 71 6 88 66 238 95 238 6 0 27 -11 47 -25z"/>
<path d="M6129 2110 c-64 -34 -218 -199 -254 -273 -12 -23 -29 -57 -38 -74
-10 -18 -16 -35 -15 -37 2 -2 -4 -12 -13 -22 -51 -58 -156 -355 -179 -502 -10
-71 -10 -70 -162 -223 -67 -67 -108 -100 -134 -109 -22 -7 -43 -16 -48 -21 -6
-5 -18 -9 -28 -9 -32 0 -21 51 32 151 116 220 124 244 136 375 6 54 4 63 -19
89 -19 22 -33 29 -60 28 -33 -1 -127 -47 -127 -62 0 -4 -23 -24 -50 -44 -68
-51 -128 -137 -205 -293 -63 -127 -75 -163 -94 -286 -11 -70 -10 -82 13 -107
20 -21 69 -20 116 5 29 15 92 75 128 122 l26 34 13 -25 c18 -36 69 -50 129
-37 45 10 174 87 191 113 5 7 25 25 46 40 l37 28 1 -28 c0 -15 2 -37 4 -48 2
-11 5 -51 6 -90 2 -73 17 -118 47 -134 24 -13 71 -2 85 20 7 11 19 19 28 19
10 0 27 16 38 36 21 35 21 35 1 29 -11 -4 -34 -19 -51 -35 -36 -32 -66 -30
-75 7 -10 39 3 274 17 313 13 38 51 96 96 147 15 18 46 57 68 87 22 30 43 55
48 56 4 0 7 5 7 11 0 6 22 41 48 78 27 36 64 95 84 131 39 73 92 163 117 200
9 14 25 45 36 70 10 25 29 69 43 98 67 143 22 231 -89 172z m21 -147 c-12 -26
-26 -59 -32 -73 -10 -23 -29 -62 -61 -122 -6 -13 -21 -37 -32 -53 -12 -17 -27
-43 -35 -60 -8 -16 -22 -40 -32 -53 -9 -13 -27 -44 -39 -70 -12 -26 -32 -57
-45 -70 -12 -12 -44 -52 -70 -87 -66 -86 -75 -89 -58 -14 8 34 18 69 24 79 5
9 14 39 20 66 11 47 121 283 144 307 6 7 35 45 65 85 29 39 56 72 61 72 4 0
30 18 56 39 42 34 49 37 52 21 2 -10 -6 -40 -18 -67z m-791 -572 c17 -30 -27
-160 -63 -190 -9 -8 -14 -21 -11 -30 6 -20 -118 -213 -174 -272 -23 -23 -41
-44 -41 -47 0 -3 -20 -27 -45 -53 -25 -26 -45 -44 -45 -38 0 6 -7 3 -16 -6
-13 -13 -19 -14 -25 -4 -4 7 -6 16 -3 20 2 4 6 22 9 40 4 35 34 137 57 199 38
102 133 246 199 303 37 32 130 94 146 97 1 0 7 -8 12 -19z"/>
<path d="M4044 2112 c-6 -4 -19 -23 -29 -42 -10 -18 -23 -39 -29 -46 -7 -6
-34 -63 -60 -125 -26 -63 -58 -137 -71 -165 -28 -57 -69 -174 -89 -249 -7 -27
-20 -66 -29 -85 -16 -33 -20 -35 -55 -32 -55 5 -113 -13 -153 -48 -18 -17 -65
-59 -104 -92 -91 -80 -301 -296 -317 -328 -17 -32 -79 -90 -96 -90 -30 0 8
184 81 395 37 109 43 134 32 148 -19 27 -54 21 -67 -10 -7 -16 -26 -48 -43
-73 -85 -122 -145 -211 -145 -216 0 -13 -260 -277 -267 -271 -6 7 20 162 28
162 1 0 3 11 4 25 1 14 7 38 14 53 6 16 11 37 11 47 0 10 5 22 10 25 6 3 10
16 10 27 0 12 4 35 10 52 19 60 50 168 50 177 0 16 -39 30 -58 20 -10 -5 -48
-54 -84 -108 -37 -54 -85 -123 -107 -153 -22 -30 -49 -71 -60 -90 -10 -19 -35
-49 -54 -67 -19 -17 -41 -40 -48 -50 -20 -26 -104 -63 -145 -63 -75 0 -88 27
-60 132 27 103 81 215 130 271 9 9 14 17 11 17 -2 0 0 11 5 25 8 22 6 27 -16
37 -26 12 -37 4 -99 -76 -11 -14 -28 -36 -37 -47 -10 -12 -18 -25 -18 -28 0
-3 -14 -22 -30 -41 -48 -57 -50 -59 -50 -64 0 -2 -12 -18 -28 -34 -15 -16 -45
-51 -67 -77 -92 -109 -126 -141 -172 -164 -26 -13 -56 -28 -65 -33 -12 -5 -18
-4 -18 2 0 17 72 152 92 174 10 11 18 24 18 28 0 5 5 6 12 2 6 -4 8 -3 5 3 -4
6 18 37 49 69 30 33 68 73 83 89 47 50 92 86 173 137 77 49 77 50 74 87 -9 91
-47 105 -138 52 -33 -20 -85 -59 -114 -87 -30 -28 -73 -67 -96 -85 -23 -19
-53 -45 -65 -58 -13 -13 -23 -22 -23 -19 0 2 -37 -32 -83 -76 -46 -45 -82 -83
-80 -85 2 -4 -30 -40 -115 -127 -84 -85 -212 -157 -212 -118 0 8 4 14 8 14 4
0 9 11 10 25 1 14 12 42 25 63 30 46 105 207 112 237 2 6 19 36 38 67 20 30
33 58 30 62 -4 3 -1 6 5 6 11 0 32 54 35 89 1 12 4 21 8 21 4 0 10 12 13 28 4
15 9 38 12 52 3 14 7 59 9 102 2 62 -1 82 -17 108 -19 32 -21 33 -74 27 -41
-4 -66 -14 -104 -42 -28 -20 -50 -41 -50 -46 0 -5 -4 -8 -8 -7 -11 4 -102 -87
-102 -102 0 -6 -4 -9 -9 -5 -5 3 -12 -4 -16 -15 -16 -51 -32 7 -33 122 -1 40
-26 84 -54 93 -26 9 -95 -13 -125 -40 -16 -14 -54 -49 -86 -78 -31 -30 -58
-52 -60 -51 -2 2 -17 -9 -33 -24 -58 -51 -80 -36 -83 58 -1 14 -5 31 -10 38
-12 20 -63 24 -102 8 -34 -14 -199 -169 -199 -188 0 -5 -5 -6 -10 -3 -6 3 -10
2 -10 -3 0 -6 -14 -24 -30 -42 -17 -18 -29 -35 -26 -37 3 -3 -8 -18 -24 -33
-15 -15 -40 -45 -54 -66 -14 -22 -41 -61 -61 -89 -40 -58 -45 -85 -13 -85 32
0 78 40 123 106 38 57 157 198 233 277 39 40 90 72 100 63 9 -10 10 -60 1 -72
-5 -6 -11 -28 -14 -50 -2 -21 -9 -40 -14 -42 -6 -2 -7 -10 -4 -19 4 -9 2 -14
-3 -11 -5 3 -9 -7 -10 -22 -1 -16 -8 -36 -18 -45 -9 -9 -16 -22 -17 -28 -1
-22 -7 -48 -15 -65 -4 -9 -8 -19 -9 -22 -3 -10 -38 -86 -69 -150 -17 -36 -30
-68 -29 -72 2 -5 -2 -8 -9 -8 -6 0 -9 -3 -6 -6 6 -6 -52 -155 -69 -176 -10
-13 -24 -50 -29 -75 -3 -16 10 -24 42 -28 18 -2 26 3 30 21 3 13 9 24 13 24 7
0 28 39 61 115 41 94 94 200 104 207 6 4 8 8 3 8 -4 0 -1 10 7 23 8 12 25 49
37 82 20 55 65 140 89 168 42 49 54 65 66 88 7 15 20 29 29 32 8 4 15 13 15
22 0 8 4 15 9 15 5 0 34 24 64 53 30 28 69 63 87 77 18 14 38 31 45 37 8 7 18
13 24 13 6 0 11 4 11 9 0 5 9 11 19 14 15 4 19 0 16 -14 -2 -10 0 -21 5 -24
11 -7 0 -45 -14 -45 -6 0 -4 -4 4 -10 8 -5 11 -12 7 -16 -4 -4 -1 -14 6 -22 9
-13 9 -14 0 -8 -9 5 -13 0 -13 -17 0 -13 -9 -33 -20 -45 -11 -12 -20 -30 -20
-41 0 -10 -7 -21 -15 -25 -8 -3 -15 -17 -15 -31 0 -14 -4 -25 -9 -25 -5 0 -14
-20 -20 -45 -6 -25 -16 -45 -22 -45 -6 0 -9 -6 -6 -14 3 -8 1 -16 -4 -18 -5
-2 -11 -13 -12 -26 0 -12 -5 -22 -9 -22 -4 0 -7 -3 -7 -7 3 -20 -2 -34 -11
-28 -5 3 -10 1 -10 -4 0 -18 0 -19 -15 -60 -7 -21 -26 -57 -40 -80 -15 -22
-25 -47 -21 -56 3 -8 0 -15 -6 -15 -6 0 -9 -3 -5 -6 3 -3 -3 -16 -15 -28 -11
-11 -31 -46 -45 -75 l-25 -55 22 -18 c29 -24 33 -23 69 12 29 30 81 129 81
156 0 8 5 14 12 14 6 0 8 3 5 6 -4 4 0 19 7 33 38 74 116 242 115 247 0 4 4
10 9 13 5 3 24 31 43 61 18 30 61 84 95 120 35 36 73 78 86 95 30 39 129 135
139 135 4 0 9 5 11 11 5 15 77 39 84 28 3 -5 2 -18 -1 -29 -4 -12 -2 -20 5
-20 7 0 7 -7 -1 -22 -7 -13 -11 -25 -10 -28 2 -5 -4 -42 -15 -90 -3 -14 -6
-30 -6 -37 -1 -7 -8 -15 -15 -17 -8 -3 -12 -10 -9 -15 3 -5 -1 -14 -9 -21 -7
-6 -11 -19 -8 -27 5 -12 3 -14 -7 -8 -8 5 -11 4 -6 -3 3 -6 -8 -35 -25 -64
-17 -29 -32 -59 -33 -67 -2 -7 -10 -17 -19 -23 -9 -5 -17 -14 -17 -20 0 -13
-52 -131 -60 -138 -6 -4 -16 -27 -22 -48 -1 -4 -8 -13 -15 -20 -7 -7 -13 -21
-13 -30 0 -10 -8 -29 -17 -42 -10 -14 -17 -26 -15 -27 1 -2 1 -6 1 -10 -7 -47
-2 -80 14 -92 41 -30 155 -1 214 54 16 14 31 25 36 25 4 0 6 4 2 9 -3 6 6 18
20 28 60 42 131 100 157 127 20 20 32 26 39 19 7 -7 -3 -34 -30 -86 -23 -41
-43 -90 -46 -109 -13 -78 71 -89 183 -25 64 37 125 94 116 109 -3 4 2 5 10 2
9 -3 33 13 63 42 26 26 52 47 57 46 5 -2 5 5 2 15 -4 9 -4 14 0 10 4 -4 14 -1
22 6 13 10 14 9 7 -3 -14 -23 -13 -83 3 -107 26 -42 80 -65 141 -60 31 2 65 7
76 10 11 3 25 6 31 6 6 1 33 22 60 49 27 26 61 55 76 65 15 9 35 32 44 50 9
17 20 34 23 37 4 3 22 24 40 48 19 24 38 39 42 35 5 -5 -2 -45 -15 -88 -21
-70 -43 -158 -50 -197 -1 -7 -5 -22 -8 -33 -4 -11 -16 -53 -28 -93 -11 -40
-25 -70 -29 -67 -9 5 -26 -23 -23 -37 1 -5 -3 -8 -8 -8 -15 0 -119 -109 -136
-142 -8 -16 -17 -28 -20 -28 -3 0 -2 6 1 13 4 6 -3 1 -14 -13 -33 -39 -63
-111 -67 -157 -1 -24 1 -43 5 -43 5 0 11 -12 14 -28 3 -15 22 -44 42 -65 67
-69 122 -43 174 81 17 39 28 72 26 72 -2 0 5 25 15 55 10 30 17 55 15 55 -2 0
5 24 15 53 10 28 21 75 25 102 4 28 17 66 30 86 29 44 393 415 400 407 3 -3 0
-43 -6 -89 -14 -98 -7 -148 24 -170 22 -16 26 -15 76 9 32 16 68 45 90 72 54
68 251 258 257 248 3 -4 0 -8 -5 -8 -6 0 -11 -6 -11 -14 0 -7 -9 -25 -20 -39
-11 -14 -20 -31 -20 -37 0 -7 -7 -26 -14 -43 -22 -48 -56 -154 -60 -188 -2
-17 3 -38 13 -50 15 -19 20 -20 60 -7 52 16 106 60 146 120 16 23 49 65 73 92
24 28 50 62 58 78 8 15 22 32 32 37 16 9 18 2 18 -77 0 -120 26 -201 71 -221
69 -31 238 16 265 74 6 13 19 27 28 30 9 3 23 17 30 30 7 14 17 25 22 25 10 0
58 98 58 118 0 23 -34 8 -48 -22 -8 -15 -21 -36 -31 -45 -9 -10 -38 -41 -65
-70 -50 -54 -125 -91 -185 -91 -33 0 -42 7 -65 52 -18 34 -19 43 -7 140 26
212 48 333 71 383 35 77 54 126 81 207 17 51 41 111 53 133 13 22 36 74 51
115 63 170 78 207 98 248 21 43 21 44 2 58 -21 16 -26 17 -41 6z m-403 -925
c-11 -24 -32 -58 -46 -77 -14 -19 -25 -40 -25 -47 0 -7 -9 -18 -20 -25 -11 -7
-20 -16 -20 -21 0 -15 -53 -87 -60 -82 -4 3 -13 -2 -20 -10 -9 -11 -10 -15 -1
-15 18 0 3 -40 -27 -72 -14 -16 -22 -28 -17 -28 6 0 -7 -9 -28 -20 -20 -11
-39 -20 -41 -20 -2 0 4 26 14 59 20 68 109 251 121 251 5 0 9 6 9 14 0 12 93
113 132 142 46 36 59 14 29 -49z m-1218 -751 c-8 -23 -17 -59 -20 -81 -3 -22
-14 -60 -25 -85 -11 -25 -21 -49 -22 -55 -7 -28 -26 -65 -33 -65 -18 1 -46 31
-49 52 -2 13 -6 39 -9 58 -6 30 -2 40 24 69 17 19 31 38 31 43 0 15 89 105
104 105 12 0 12 -6 -1 -41z"/>
<path d="M3012 1938 c-11 -24 -27 -65 -38 -93 -10 -27 -35 -66 -56 -87 -21
-21 -38 -44 -38 -52 0 -32 59 -28 99 8 61 54 113 255 68 264 -12 2 -22 -9 -35
-40z"/>
<path d="M10010 1813 c-13 -72 -27 -106 -38 -99 -4 2 -7 -10 -7 -26 0 -35 31
-53 75 -43 21 5 26 11 25 33 -1 15 3 33 8 40 6 8 5 12 -2 12 -8 0 -10 8 -5 23
10 32 5 90 -9 99 -7 4 -7 8 -2 8 10 0 -15 20 -26 20 -4 0 -12 -30 -19 -67z"/>
<path d="M3336 1822 c-3 -5 1 -30 9 -57 21 -68 19 -83 -14 -115 -15 -16 -31
-39 -34 -51 -5 -20 -3 -21 36 -16 73 10 115 88 84 159 -8 18 -19 45 -25 61
-11 26 -44 37 -56 19z"/>
<path d="M7930 1589 c-42 -23 -100 -82 -100 -103 0 -8 8 -16 18 -19 13 -3 11
-6 -10 -15 -16 -6 -29 -18 -29 -27 -1 -8 -2 -21 -3 -29 -1 -18 87 -113 114
-121 11 -3 20 -11 20 -17 0 -6 8 -20 17 -30 47 -53 -29 -203 -121 -238 -42
-15 -87 3 -126 51 -22 28 -38 39 -53 37 -23 -3 -24 -11 -14 -85 16 -114 98
-164 210 -127 29 9 57 20 62 24 6 3 30 12 55 19 25 7 64 24 86 37 49 29 54 23
54 -60 0 -49 3 -56 52 -110 51 -58 52 -58 97 -53 62 7 142 43 148 66 2 10 15
24 28 31 13 7 23 16 22 19 -1 4 15 28 37 54 l39 47 23 -25 c13 -15 24 -29 24
-33 0 -10 33 -36 51 -41 103 -29 208 24 354 177 27 29 71 75 96 102 26 26 50
57 54 69 3 12 11 19 16 16 5 -4 9 0 9 8 0 8 9 22 20 32 11 10 20 24 20 31 0 7
10 20 22 28 12 9 18 16 13 16 -6 0 2 8 18 18 15 10 24 22 20 25 -3 4 1 7 10 7
9 0 20 -14 27 -34 6 -19 19 -37 28 -39 13 -4 12 -5 -4 -6 -17 -1 -20 -6 -16
-30 3 -23 -3 -36 -28 -61 -29 -28 -65 -123 -54 -142 2 -3 0 -9 -6 -13 -6 -3
-7 -20 -4 -38 3 -18 7 -38 7 -44 0 -7 4 -13 9 -13 4 0 8 -6 8 -13 0 -22 90
-62 134 -59 43 2 146 48 146 65 0 6 3 7 7 4 4 -4 20 5 36 20 17 16 26 22 22
14 -18 -32 45 27 74 69 17 24 32 39 32 32 1 -7 2 -17 3 -23 0 -6 9 -16 19 -23
9 -7 17 -20 17 -29 0 -9 14 -32 31 -52 30 -34 34 -35 99 -35 57 0 71 4 93 24
14 13 28 22 30 20 2 -2 4 2 5 9 0 6 3 31 6 55 4 28 2 41 -5 36 -6 -3 -8 -8 -6
-11 3 -2 -8 -17 -24 -32 -16 -15 -27 -30 -24 -32 2 -3 -7 -6 -20 -7 -13 -1
-28 -2 -32 -3 -26 -4 -62 3 -79 17 -10 8 -12 12 -4 8 12 -6 11 -3 -2 12 -14
16 -16 34 -13 94 3 41 5 83 6 93 0 9 3 15 7 13 4 -2 18 25 32 60 13 35 28 64
33 64 5 0 7 8 5 18 -3 10 1 27 8 36 20 28 -1 66 -37 66 -19 0 -47 -39 -52 -70
-2 -12 -11 -30 -20 -40 -9 -11 -14 -20 -11 -20 8 0 -55 -115 -74 -137 -10 -10
-23 -30 -31 -45 -7 -14 -25 -40 -40 -56 -14 -17 -41 -49 -59 -71 -18 -22 -48
-48 -67 -57 -19 -9 -32 -21 -29 -26 5 -7 1 -7 -11 0 -10 5 -30 6 -44 2 -29 -8
-56 -5 -93 9 -27 10 -41 51 -32 93 2 13 7 37 10 53 6 33 24 65 55 96 17 17 26
55 19 84 -1 6 -4 33 -6 60 -2 28 -7 63 -10 80 -7 30 -38 65 -58 65 -13 0 -48
-33 -96 -90 -19 -23 -43 -49 -54 -58 -10 -9 -38 -48 -62 -85 -24 -37 -60 -83
-79 -101 -19 -19 -35 -38 -35 -41 0 -4 -16 -23 -36 -41 -19 -19 -33 -34 -30
-34 3 0 -6 -12 -19 -26 -14 -15 -25 -31 -25 -35 0 -5 -5 -9 -10 -9 -6 0 -35
-16 -65 -36 -48 -32 -60 -36 -100 -31 -25 2 -49 7 -52 10 -16 16 -18 138 -3
165 7 13 38 104 45 132 1 3 11 25 23 50 12 25 22 51 22 58 0 6 5 12 10 12 6 0
10 8 10 19 0 10 7 24 15 31 29 24 2 69 -40 70 -25 0 -42 -27 -62 -94 -16 -56
-127 -288 -147 -308 -12 -13 -57 -101 -58 -115 0 -4 -7 -17 -14 -28 -8 -11
-14 -33 -14 -50 0 -19 -3 -25 -8 -17 -6 9 -20 6 -58 -13 -67 -34 -119 -33
-151 3 -20 23 -23 35 -20 82 7 108 32 142 182 252 39 29 86 68 106 87 56 56
119 113 157 143 19 16 32 28 28 28 -4 0 19 25 50 55 56 55 56 56 38 76 -15 16
-26 19 -54 14 -19 -4 -39 -10 -45 -14 -5 -5 -41 -25 -80 -46 -38 -20 -80 -49
-92 -62 -12 -14 -46 -40 -75 -59 -29 -18 -57 -37 -63 -42 -30 -27 -85 -94 -85
-102 0 -6 -4 -10 -8 -10 -5 0 -15 -12 -22 -27 -24 -48 -79 -111 -125 -144 -25
-18 -45 -38 -45 -46 0 -13 -24 -18 -65 -13 -29 3 -30 7 -10 30 10 11 15 20 11
20 -4 0 0 7 8 16 9 8 16 24 16 34 0 10 4 21 8 24 11 7 7 106 -6 137 -5 14 -39
52 -75 85 -35 32 -67 69 -71 82 -8 25 1 65 14 57 4 -3 11 2 14 11 5 12 15 14
48 9 41 -6 44 -4 68 32 34 52 34 52 14 68 -25 19 -51 17 -94 -6z"/>
</g>
</svg>
